<svg xmlns="http://www.w3.org/2000/svg"
     width="6.82667in" height="6.82667in"
     viewBox="0 0 2048 2048">
  <path id="Selection"
        fill="white" stroke="none" 
        d="M 1365.00,524.00
           C 1377.79,531.19 1408.09,555.61 1420.00,565.87
             1455.41,596.36 1487.32,631.26 1514.85,669.00
             1514.85,669.00 1549.00,721.00 1549.00,721.00
             1549.00,721.00 1582.04,687.00 1582.04,687.00
             1582.04,687.00 1617.96,650.00 1617.96,650.00
             1617.96,650.00 1659.00,607.00 1659.00,607.00
             1659.00,607.00 1670.04,595.00 1670.04,595.00
             1670.04,595.00 1689.28,575.00 1689.28,575.00
             1691.46,572.53 1699.04,565.48 1699.66,563.00
             1700.59,559.28 1693.49,553.44 1691.00,551.01
             1691.00,551.01 1658.00,519.96 1658.00,519.96
             1658.00,519.96 1546.00,412.91 1546.00,412.91
             1546.00,412.91 1531.00,398.04 1531.00,398.04
             1531.00,398.04 1518.00,386.00 1518.00,386.00
             1515.78,383.79 1510.07,377.20 1507.00,377.20
             1503.93,377.20 1498.21,383.79 1496.00,386.00
             1496.00,386.00 1471.00,412.00 1471.00,412.00
             1471.00,412.00 1458.96,425.00 1458.96,425.00
             1458.96,425.00 1423.04,462.00 1423.04,462.00
             1423.04,462.00 1413.99,472.00 1413.99,472.00
             1413.99,472.00 1365.00,524.00 1365.00,524.00 Z
           M 995.00,438.21
           C 995.00,438.21 981.00,439.17 981.00,439.17
             981.00,439.17 943.00,443.28 943.00,443.28
             908.59,447.81 871.92,456.38 839.00,467.35
             688.58,517.49 561.63,628.39 493.78,772.00
             471.07,820.08 456.16,866.79 446.39,919.00
             443.29,935.56 438.19,969.83 438.00,986.00
             438.00,986.00 437.00,1005.00 437.00,1005.00
             437.00,1005.00 437.00,1045.00 437.00,1045.00
             437.00,1045.00 438.00,1060.00 438.00,1060.00
             438.24,1080.49 442.88,1111.48 446.58,1132.00
             461.81,1216.47 496.54,1297.22 546.43,1367.00
             583.86,1419.35 629.85,1464.93 682.00,1502.58
             730.07,1537.28 785.54,1565.23 842.00,1583.34
             889.97,1598.73 939.63,1608.85 990.00,1611.04
             990.00,1611.04 1001.00,1612.00 1001.00,1612.00
             1001.00,1612.00 1045.00,1612.00 1045.00,1612.00
             1045.00,1612.00 1058.00,1611.04 1058.00,1611.04
             1103.97,1609.04 1149.93,1600.55 1194.00,1587.28
             1376.67,1532.27 1521.35,1390.87 1581.65,1210.00
             1592.98,1175.99 1601.90,1137.59 1606.15,1102.00
             1606.15,1102.00 1609.09,1074.00 1609.09,1074.00
             1609.09,1074.00 1610.00,1064.00 1610.00,1064.00
             1610.00,1064.00 1611.00,1047.00 1611.00,1047.00
             1611.00,1047.00 1611.00,1005.00 1611.00,1005.00
             1611.00,1005.00 1610.00,986.00 1610.00,986.00
             1610.00,986.00 1609.09,976.00 1609.09,976.00
             1609.09,976.00 1606.15,948.00 1606.15,948.00
             1601.55,909.45 1591.70,868.55 1578.69,832.00
             1562.52,786.55 1543.48,746.63 1517.31,706.00
             1436.88,581.14 1309.84,491.09 1166.00,455.13
             1130.66,446.29 1094.37,440.54 1058.00,438.96
             1058.00,438.96 1045.00,438.21 1045.00,438.21
             1045.00,438.21 995.00,438.21 995.00,438.21 Z
           M 1534.00,820.00
           C 1534.00,820.00 1543.57,847.00 1543.57,847.00
             1543.57,847.00 1554.12,882.00 1554.12,882.00
             1563.06,916.01 1568.68,949.96 1571.09,985.00
             1571.09,985.00 1572.00,995.00 1572.00,995.00
             1572.00,995.00 1573.00,1027.00 1573.00,1027.00
             1573.00,1027.00 1572.04,1039.00 1572.04,1039.00
             1572.04,1039.00 1572.04,1051.00 1572.04,1051.00
             1572.04,1051.00 1571.09,1063.00 1571.09,1063.00
             1569.33,1088.73 1565.67,1113.69 1560.60,1139.00
             1560.60,1139.00 1556.13,1158.00 1556.13,1158.00
             1555.62,1160.01 1554.95,1163.70 1553.28,1165.01
             1551.67,1166.26 1548.00,1166.00 1546.00,1166.00
             1546.00,1166.00 1024.00,1166.00 1024.00,1166.00
             1024.00,1166.00 502.00,1166.00 502.00,1166.00
             500.00,1166.00 496.33,1166.26 494.72,1165.01
             493.05,1163.70 492.38,1160.01 491.87,1158.00
             491.87,1158.00 487.40,1139.00 487.40,1139.00
             482.31,1113.60 478.69,1088.83 476.91,1063.00
             476.91,1063.00 475.96,1051.00 475.96,1051.00
             475.96,1051.00 475.96,1039.00 475.96,1039.00
             475.96,1039.00 475.00,1029.00 475.00,1029.00
             475.00,1029.00 475.00,1019.00 475.00,1019.00
             475.00,1019.00 475.96,1009.00 475.96,1009.00
             475.96,1009.00 475.96,997.00 475.96,997.00
             475.96,997.00 476.91,985.00 476.91,985.00
             478.79,957.71 482.52,930.75 488.42,904.00
             492.57,885.22 497.84,866.19 504.08,848.00
             504.08,848.00 514.00,820.00 514.00,820.00
             514.00,820.00 1534.00,820.00 1534.00,820.00 Z
           M 651.00,1073.00
           C 655.67,1070.30 662.46,1057.29 666.67,1052.00
             675.26,1041.19 686.03,1032.24 698.00,1025.43
             746.41,997.88 809.29,1018.90 834.24,1068.00
             836.72,1072.88 839.50,1077.73 841.00,1083.00
             847.96,1079.10 854.18,1063.55 856.95,1056.00
             867.57,1027.03 866.31,993.83 852.74,966.00
             837.93,935.61 809.96,913.20 777.00,905.65
             771.41,904.37 764.71,903.07 759.00,903.00
             759.00,903.00 745.00,903.00 745.00,903.00
             721.57,903.04 695.81,913.44 678.00,928.44
             669.26,935.80 660.62,945.26 654.61,955.00
             642.29,974.97 636.73,995.56 637.00,1019.00
             637.13,1029.57 640.15,1045.02 643.70,1055.00
             643.70,1055.00 651.00,1073.00 651.00,1073.00 Z
           M 1198.00,1073.00
           C 1202.67,1070.30 1209.46,1057.29 1213.67,1052.00
             1222.26,1041.19 1233.03,1032.24 1245.00,1025.43
             1293.41,997.88 1356.29,1018.90 1381.24,1068.00
             1383.72,1072.88 1386.50,1077.73 1388.00,1083.00
             1394.96,1079.10 1401.18,1063.55 1403.95,1056.00
             1414.57,1027.03 1413.31,993.83 1399.74,966.00
             1384.93,935.61 1356.96,913.20 1324.00,905.65
             1318.41,904.37 1311.71,903.07 1306.00,903.00
             1306.00,903.00 1292.00,903.00 1292.00,903.00
             1268.57,903.04 1242.81,913.44 1225.00,928.44
             1216.26,935.80 1207.62,945.26 1201.61,955.00
             1189.29,974.97 1183.73,995.56 1184.00,1019.00
             1184.13,1029.57 1187.15,1045.02 1190.70,1055.00
             1190.70,1055.00 1198.00,1073.00 1198.00,1073.00 Z
           M 502.00,1711.00
           C 508.37,1706.44 521.70,1692.30 528.00,1686.00
             528.00,1686.00 574.00,1640.00 574.00,1640.00
             574.00,1640.00 592.00,1622.00 592.00,1622.00
             594.00,1620.00 598.78,1614.94 601.00,1613.77
             604.40,1611.99 611.13,1614.31 615.00,1614.87
             625.34,1616.35 635.57,1616.02 646.00,1616.00
             654.47,1615.99 662.80,1614.41 671.00,1612.37
             702.32,1604.58 723.99,1589.20 745.00,1565.00
             740.67,1560.09 726.46,1553.65 720.00,1549.80
             720.00,1549.80 669.00,1516.58 669.00,1516.58
             622.07,1482.69 570.51,1433.19 537.00,1386.00
             529.82,1389.56 523.02,1401.13 518.81,1408.00
             508.46,1424.90 500.03,1450.08 500.00,1470.00
             500.00,1470.00 500.00,1488.00 500.00,1488.00
             500.01,1493.40 500.65,1498.68 501.61,1504.00
             502.01,1506.21 503.30,1510.55 502.54,1512.58
             501.79,1514.60 497.65,1518.36 496.00,1520.00
             496.00,1520.00 483.00,1533.00 483.00,1533.00
             483.00,1533.00 434.00,1582.00 434.00,1582.00
             434.00,1582.00 414.00,1602.00 414.00,1602.00
             412.12,1603.88 406.93,1608.63 406.34,1611.00
             405.56,1614.11 409.07,1617.03 411.00,1619.00
             411.00,1619.00 429.00,1637.00 429.00,1637.00
             429.00,1637.00 502.00,1711.00 502.00,1711.00 Z
           M 340.00,1729.00
           C 340.00,1729.00 391.00,1742.37 391.00,1742.37
             395.35,1743.47 407.23,1747.42 411.00,1746.65
             415.58,1745.71 423.28,1736.55 427.00,1733.09
             427.00,1733.09 465.00,1697.00 465.00,1697.00
             465.00,1697.00 422.00,1652.00 422.00,1652.00
             415.00,1655.31 400.41,1670.94 394.00,1676.91
             394.00,1676.91 357.00,1711.96 357.00,1711.96
             350.63,1718.06 345.40,1721.46 340.00,1729.00 Z" />
</svg>
