<?xml version="1.0" standalone="no"?>
<!DOCTYPE svg PUBLIC "-//W3C//DTD SVG 20010904//EN"
 "http://www.w3.org/TR/2001/REC-SVG-20010904/DTD/svg10.dtd">
<svg version="1.0" xmlns="http://www.w3.org/2000/svg"
 width="1000.000000pt" height="1000.000000pt" viewBox="0 0 1000.000000 1000.000000"
 preserveAspectRatio="xMidYMid meet">
<metadata>
Created by potrace 1.14, written by Peter Selinger 2001-2017
</metadata>
<g transform="translate(0.000000,1000.000000) scale(0.100000,-0.100000)"
fill="#000000" stroke="none">
<path d="M0 5000 l0 -5000 5000 0 5000 0 0 5000 0 5000 -5000 0 -5000 0 0
-5000z m7888 2661 l422 -404 -68 -71 c-37 -39 -204 -214 -372 -390 -278 -290
-306 -316 -318 -300 -7 11 -47 71 -88 134 -168 256 -445 551 -677 720 -64 47
-115 90 -114 96 1 6 155 171 342 367 l340 355 55 -51 c30 -29 245 -234 478
-456z m-2443 170 c334 -55 662 -167 940 -323 716 -400 1223 -1068 1409 -1858
54 -230 70 -374 70 -655 0 -220 -4 -283 -23 -405 -53 -344 -136 -603 -288
-903 -138 -269 -305 -499 -523 -717 -472 -473 -1061 -754 -1735 -830 -116 -13
-474 -13 -590 0 -674 76 -1263 357 -1735 830 -404 404 -678 917 -784 1467 -44
230 -51 307 -50 568 0 206 4 275 23 395 53 347 140 616 295 916 330 639 895
1133 1576 1381 188 68 450 127 700 157 19 2 159 3 310 1 223 -2 300 -7 405
-24z m-2735 -4707 c94 -119 335 -356 460 -453 113 -88 277 -198 377 -253 40
-22 75 -43 78 -48 3 -4 -26 -37 -65 -73 -126 -116 -279 -177 -445 -177 -49 0
-108 5 -130 10 l-40 9 -245 -244 -245 -245 -240 240 -240 240 246 248 246 247
-9 45 c-14 71 -3 236 22 310 31 94 119 240 145 239 6 0 44 -43 85 -95z m-547
-1302 l109 -109 -129 -121 c-79 -76 -136 -122 -148 -121 -35 1 -327 84 -327
92 1 9 373 366 382 367 3 0 54 -49 113 -108z"/>
<path d="M2486 5932 c-175 -457 -213 -1021 -102 -1520 l21 -97 2595 0 2595 0
21 97 c77 347 84 732 19 1083 -25 136 -77 321 -121 437 l-26 68 -2488 0 -2488
0 -26 -68z m1365 -374 c126 -46 245 -151 304 -268 57 -112 75 -262 46 -380
-13 -51 -75 -190 -86 -190 -3 0 -19 28 -36 61 -105 209 -352 318 -574 255
-111 -32 -220 -115 -286 -218 -19 -29 -35 -46 -41 -40 -5 5 -21 42 -35 83 -34
98 -36 241 -4 339 64 196 218 338 416 380 72 16 223 4 296 -22z m2614 17 c274
-70 457 -338 416 -610 -11 -78 -49 -184 -80 -224 l-19 -24 -28 58 c-83 169
-256 277 -444 277 -175 0 -330 -88 -425 -241 -15 -24 -30 -39 -35 -35 -5 5
-21 45 -36 89 -76 228 5 480 200 619 133 96 301 129 451 91z"/>
</g>
</svg>
